<svg width="794" height="1123" viewBox="0 0 794 1123" fill="none" xmlns="http://www.w3.org/2000/svg">
<path fill-rule="evenodd" clip-rule="evenodd" d="M476.56 632.3V465.774L458.607 486.826V638.045C439.672 643.299 419.716 646.171 399.117 646.171C378.481 646.171 358.525 643.299 339.552 638.045V449.371H321.637V632.263C236.636 600.704 175.899 518.801 175.899 422.952C175.899 299.891 276.018 199.733 399.117 199.733C522.179 199.733 622.299 299.891 622.299 422.952C622.299 518.801 561.562 600.741 476.56 632.3ZM441.637 697.082C449.801 697.082 456.453 703.696 456.453 711.859C456.453 720.023 449.801 726.675 441.637 726.675H356.56C348.396 726.675 341.744 720.023 341.744 711.859C341.744 703.696 348.396 697.082 356.56 697.082H441.637ZM441.637 807.217H356.56C348.396 807.217 341.744 800.565 341.744 792.401C341.744 784.237 348.396 777.585 356.56 777.585H441.637C449.801 777.585 456.453 784.237 456.453 792.401C456.453 800.565 449.801 807.217 441.637 807.217ZM673.209 422.952C673.209 271.809 550.261 148.823 399.117 148.823C247.974 148.823 124.988 271.809 124.988 422.952C124.988 539.173 197.744 638.688 300.056 678.486C294.273 688.275 290.872 699.689 290.872 711.859C290.872 727.053 296.087 741 304.743 752.149C296.087 763.261 290.872 777.245 290.872 792.401C290.872 828.647 320.352 858.127 356.56 858.127H441.637C477.883 858.127 507.363 828.647 507.363 792.401C507.363 777.245 502.147 763.261 493.454 752.149C502.147 741 507.363 727.053 507.363 711.859C507.363 699.689 503.962 688.275 498.141 678.486C600.453 638.688 673.209 539.173 673.209 422.952Z" fill="url(#paint0_linear_831_1552)"/>
<path fill-rule="evenodd" clip-rule="evenodd" d="M399.118 919.809C421.342 919.809 439.37 901.781 439.37 879.52H358.828C358.828 901.781 376.856 919.809 399.118 919.809Z" fill="url(#paint1_linear_831_1552)"/>
<path fill-rule="evenodd" clip-rule="evenodd" d="M745.511 394.568C728.012 394.568 713.801 408.779 713.801 426.279C713.801 443.816 728.012 457.989 745.511 457.989C763.01 457.989 777.221 443.816 777.221 426.279C777.221 408.779 763.01 394.568 745.511 394.568Z" fill="url(#paint2_linear_831_1552)"/>
<path fill-rule="evenodd" clip-rule="evenodd" d="M85.7193 426.279C85.7193 408.779 71.5083 394.568 54.0091 394.568C36.4721 394.568 22.2988 408.779 22.2988 426.279C22.2988 443.816 36.4721 457.989 54.0091 457.989C71.5083 457.989 85.7193 443.816 85.7193 426.279Z" fill="url(#paint3_linear_831_1552)"/>
<path fill-rule="evenodd" clip-rule="evenodd" d="M694.867 318.902C700.838 335.343 719.056 343.809 735.497 337.837C751.975 331.865 760.441 313.648 754.47 297.207C748.46 280.728 730.281 272.262 713.802 278.234C697.361 284.206 688.857 302.423 694.867 318.902Z" fill="url(#paint4_linear_831_1552)"/>
<path fill-rule="evenodd" clip-rule="evenodd" d="M104.655 533.693C98.6459 517.252 80.4663 508.748 63.9876 514.757C47.5466 520.729 39.0427 538.946 45.0522 555.387C51.0238 571.866 69.2411 580.332 85.6821 574.36C102.161 568.351 110.627 550.171 104.655 533.693Z" fill="url(#paint5_linear_831_1552)"/>
<path fill-rule="evenodd" clip-rule="evenodd" d="M685.001 228.344C698.419 217.081 700.157 197.087 688.894 183.67C677.669 170.253 657.638 168.476 644.22 179.739C630.803 191.002 629.064 210.996 640.327 224.413C651.59 237.831 671.584 239.607 685.001 228.344Z" fill="url(#paint6_linear_831_1552)"/>
<path fill-rule="evenodd" clip-rule="evenodd" d="M114.52 624.25C101.102 635.513 99.326 655.507 110.589 668.924C121.852 682.342 141.846 684.08 155.263 672.817C168.68 661.592 170.419 641.561 159.194 628.143C147.931 614.764 127.899 612.987 114.52 624.25Z" fill="url(#paint7_linear_831_1552)"/>
<path fill-rule="evenodd" clip-rule="evenodd" d="M556.761 154.342C571.955 163.072 591.344 157.894 600.074 142.701C608.843 127.545 603.665 108.156 588.471 99.3872C573.315 90.6565 553.926 95.8345 545.158 110.99C536.389 126.184 541.605 145.573 556.761 154.342Z" fill="url(#paint8_linear_831_1552)"/>
<path fill-rule="evenodd" clip-rule="evenodd" d="M454.3 117.038C471.534 120.061 487.975 108.534 491.037 91.2989C494.06 74.0643 482.533 57.5856 465.298 54.5619C448.063 51.5005 431.585 63.0281 428.561 80.2627C425.537 97.5352 437.027 113.976 454.3 117.038Z" fill="url(#paint9_linear_831_1552)"/>
<path fill-rule="evenodd" clip-rule="evenodd" d="M345.222 117.038C362.456 113.976 373.984 97.5352 370.923 80.2627C367.899 63.0281 351.458 51.5383 334.223 54.562C316.951 57.5856 305.423 74.0643 308.485 91.299C311.508 108.534 327.987 120.061 345.222 117.038Z" fill="url(#paint10_linear_831_1552)"/>
<path fill-rule="evenodd" clip-rule="evenodd" d="M242.721 154.342C257.877 145.573 263.093 126.184 254.324 110.99C245.594 95.8345 226.167 90.6565 211.011 99.3872C195.855 108.156 190.639 127.545 199.408 142.701C208.176 157.894 227.565 163.072 242.721 154.342Z" fill="url(#paint11_linear_831_1552)"/>
<path fill-rule="evenodd" clip-rule="evenodd" d="M114.52 228.344C127.899 239.607 147.931 237.831 159.194 224.413C170.419 210.996 168.68 191.002 155.263 179.739C141.846 168.476 121.852 170.253 110.589 183.67C99.326 197.087 101.102 217.081 114.52 228.344Z" fill="url(#paint12_linear_831_1552)"/>
<path fill-rule="evenodd" clip-rule="evenodd" d="M685.001 624.25C671.584 612.987 651.59 614.764 640.327 628.143C629.064 641.561 630.803 661.592 644.22 672.817C657.638 684.08 677.669 682.342 688.894 668.924C700.157 655.507 698.419 635.513 685.001 624.25Z" fill="url(#paint13_linear_831_1552)"/>
<path fill-rule="evenodd" clip-rule="evenodd" d="M63.9876 337.837C80.4663 343.809 98.6459 335.343 104.655 318.902C110.627 302.423 102.161 284.206 85.6821 278.234C69.2411 272.262 51.0238 280.728 45.0522 297.207C39.0427 313.648 47.5466 331.865 63.9876 337.837Z" fill="url(#paint14_linear_831_1552)"/>
<path fill-rule="evenodd" clip-rule="evenodd" d="M735.497 514.757C719.056 508.748 700.838 517.252 694.867 533.693C688.857 550.171 697.361 568.351 713.802 574.36C730.281 580.332 748.46 571.866 754.47 555.387C760.441 538.946 751.975 520.729 735.497 514.757Z" fill="url(#paint15_linear_831_1552)"/>
<path fill-rule="evenodd" clip-rule="evenodd" d="M497.385 381.038H411.249C404.295 381.038 399.419 374.121 401.763 367.545L428.484 293.164C432.188 282.845 419.073 274.871 411.627 282.883L294.764 408.553C288.755 414.978 293.328 425.485 302.134 425.485H390.008C396.963 425.485 401.838 432.326 399.533 438.864L368.503 527.721C364.837 538.228 378.443 546.052 385.7 537.586L505.019 397.63C510.613 391.091 505.964 381.038 497.385 381.038Z" fill="url(#paint16_linear_831_1552)"/>
<path d="M87.64 1070.48V976.08H101.528V1066.26L95.256 1058.7H138.072V1070.48H87.64ZM177.231 1071.7C172.41 1071.7 168.399 1070.89 165.199 1069.26C161.999 1067.6 159.46 1065.45 157.583 1062.8C155.706 1060.11 154.383 1057.19 153.615 1054.03C152.847 1050.83 152.463 1047.72 152.463 1044.69C152.463 1043.11 152.463 1041.47 152.463 1039.76C152.463 1038.01 152.463 1036.26 152.463 1034.51V1002.51H166.415V1032.53C166.415 1034.06 166.415 1035.58 166.415 1037.07C166.415 1038.52 166.415 1039.89 166.415 1041.17C166.415 1044.45 166.842 1047.48 167.695 1050.26C168.548 1052.99 170.042 1055.21 172.175 1056.91C174.351 1058.58 177.38 1059.41 181.263 1059.41C184.89 1059.41 188.047 1058.34 190.735 1056.21C193.423 1054.03 195.514 1051.3 197.007 1048.02C198.5 1044.69 199.247 1041.36 199.247 1038.03L205.327 1041.3C205.327 1045.22 204.666 1049 203.343 1052.62C202.063 1056.25 200.207 1059.52 197.775 1062.42C195.343 1065.28 192.378 1067.54 188.879 1069.2C185.423 1070.86 181.54 1071.7 177.231 1071.7ZM199.247 1070.48V1002.51H213.135V1070.48H199.247ZM272.761 1070.48V1041.68C272.761 1039.08 272.761 1036.84 272.761 1034.96C272.761 1033.04 272.761 1031.42 272.761 1030.1C272.761 1028.43 272.633 1026.66 272.377 1024.78C272.164 1022.91 271.652 1021.16 270.841 1019.54C270.073 1017.87 268.857 1016.53 267.193 1015.5C265.529 1014.48 263.246 1013.97 260.345 1013.97C257.444 1013.97 254.99 1014.54 252.985 1015.7C250.98 1016.85 249.358 1018.38 248.121 1020.3C246.884 1022.18 245.988 1024.29 245.433 1026.64C244.878 1028.94 244.601 1031.27 244.601 1033.62L238.713 1030.42C238.713 1025.08 239.758 1020.24 241.849 1015.89C243.982 1011.49 246.969 1008 250.809 1005.39C254.692 1002.75 259.257 1001.42 264.505 1001.42C269.838 1001.42 274.105 1002.53 277.305 1004.75C280.548 1006.93 282.894 1009.92 284.345 1013.71C285.796 1017.47 286.521 1021.73 286.521 1026.51C286.521 1028.26 286.521 1030.54 286.521 1033.36C286.521 1036.18 286.521 1039.44 286.521 1043.15V1070.48H272.761ZM230.713 1070.48V1002.51H244.601V1070.48H230.713ZM314.617 1070.48V1041.74C314.617 1038.93 314.617 1036.58 314.617 1034.7C314.617 1032.78 314.617 1031.18 314.617 1029.9C314.617 1028.16 314.51 1026.36 314.297 1024.53C314.084 1022.65 313.572 1020.92 312.761 1019.34C311.95 1017.77 310.692 1016.49 308.985 1015.5C307.321 1014.48 304.996 1013.97 302.009 1013.97C299.065 1013.97 296.59 1014.54 294.585 1015.7C292.622 1016.81 291.044 1018.3 289.849 1020.18C288.654 1022.01 287.801 1024.04 287.289 1026.26C286.777 1028.48 286.521 1030.67 286.521 1032.85L280.633 1029.78C280.633 1024.66 281.657 1019.94 283.705 1015.63C285.796 1011.32 288.74 1007.89 292.537 1005.33C296.377 1002.73 300.921 1001.42 306.169 1001.42C311.289 1001.42 315.492 1002.45 318.777 1004.5C322.062 1006.54 324.494 1009.38 326.073 1013.01C327.652 1016.64 328.441 1020.84 328.441 1025.62C328.441 1027.45 328.441 1029.76 328.441 1032.53C328.441 1035.3 328.441 1038.52 328.441 1042.19V1070.48H314.617ZM346.28 1070.48V1002.51H359.976V1070.48H346.28ZM353.192 988.432C350.803 988.432 348.733 987.792 346.984 986.512C345.277 985.19 344.424 983.376 344.424 981.072C344.424 978.811 345.277 977.04 346.984 975.76C348.733 974.438 350.803 973.776 353.192 973.776C355.539 973.776 357.565 974.438 359.272 975.76C361.021 977.04 361.896 978.811 361.896 981.072C361.896 983.376 361.021 985.19 359.272 986.512C357.565 987.792 355.539 988.432 353.192 988.432Z" fill="#E4E4E4"/>
<path d="M436.447 987.6H407.839L412.191 980.304V1070.48H398.303V980.304L403.103 987.6H374.111V976.08H436.447V987.6ZM442.588 1070.48V1002.51H456.476V1024.21L452.764 1022.54C453.063 1019.77 453.767 1017.13 454.876 1014.61C455.985 1012.09 457.457 1009.85 459.292 1007.89C461.169 1005.88 463.473 1004.3 466.204 1003.15C468.935 1002 472.092 1001.42 475.676 1001.42C478.407 1001.42 480.604 1001.64 482.268 1002.06C483.975 1002.49 485.02 1002.83 485.404 1003.09L482.46 1016.14C482.033 1015.85 481.159 1015.46 479.836 1014.99C478.556 1014.52 476.764 1014.29 474.46 1014.29C470.961 1014.29 468.06 1014.91 465.756 1016.14C463.452 1017.38 461.617 1019.02 460.252 1021.07C458.887 1023.12 457.905 1025.36 457.308 1027.79C456.753 1030.18 456.476 1032.59 456.476 1035.02V1070.48H442.588ZM518.89 1071.82C513.77 1071.82 509.269 1071.01 505.386 1069.39C501.546 1067.77 498.559 1065.45 496.426 1062.42C494.293 1059.39 493.226 1055.74 493.226 1051.47C493.226 1046.91 494.421 1043.13 496.81 1040.14C499.242 1037.16 502.57 1034.85 506.794 1033.23C511.061 1031.57 515.903 1030.48 521.322 1029.97C529.386 1029.16 535.061 1028.37 538.346 1027.6C541.674 1026.83 543.338 1025.57 543.338 1023.82C543.338 1023.78 543.338 1023.74 543.338 1023.7C543.338 1020.24 541.866 1017.62 538.922 1015.82C535.978 1014.03 531.775 1013.14 526.314 1013.14C520.554 1013.14 516.095 1014.16 512.938 1016.21C509.823 1018.21 508.266 1021.41 508.266 1025.81H494.634C494.634 1020.6 495.978 1016.19 498.666 1012.56C501.397 1008.93 505.151 1006.18 509.93 1004.3C514.709 1002.38 520.191 1001.42 526.378 1001.42C532.053 1001.42 537.215 1002.3 541.866 1004.05C546.559 1005.76 550.293 1008.32 553.066 1011.73C555.839 1015.14 557.226 1019.39 557.226 1024.46C557.226 1025.36 557.226 1026.26 557.226 1027.15C557.226 1028.01 557.226 1028.88 557.226 1029.78V1056.91C557.226 1058.49 557.29 1060.03 557.418 1061.52C557.546 1062.97 557.781 1064.27 558.122 1065.42C558.506 1066.75 558.954 1067.84 559.466 1068.69C560.021 1069.54 560.469 1070.14 560.81 1070.48H546.986C546.73 1070.22 546.346 1069.69 545.834 1068.88C545.365 1068.03 544.938 1067.05 544.554 1065.94C544.17 1064.87 543.871 1063.65 543.658 1062.29C543.487 1060.88 543.402 1059.37 543.402 1057.74L545.962 1059.54C544.682 1062.01 542.741 1064.17 540.138 1066C537.578 1067.84 534.485 1069.26 530.858 1070.29C527.274 1071.31 523.285 1071.82 518.89 1071.82ZM521.77 1060.3C525.738 1060.3 529.343 1059.69 532.586 1058.45C535.871 1057.17 538.495 1055.25 540.458 1052.69C542.421 1050.09 543.402 1046.82 543.402 1042.9V1031.63L546.666 1035.92C543.935 1036.99 540.586 1037.86 536.618 1038.54C532.693 1039.18 528.639 1039.72 524.458 1040.14C518.698 1040.66 514.367 1041.66 511.466 1043.15C508.565 1044.6 507.114 1047.04 507.114 1050.45C507.114 1053.73 508.309 1056.21 510.698 1057.87C513.13 1059.49 516.821 1060.3 521.77 1060.3ZM607.048 1071.82C600.221 1071.82 594.099 1070.4 588.68 1067.54C583.304 1064.64 579.059 1060.52 575.944 1055.18C572.872 1049.85 571.336 1043.58 571.336 1036.37C571.336 1029.16 572.872 1022.95 575.944 1017.74C579.059 1012.5 583.304 1008.46 588.68 1005.65C594.099 1002.83 600.221 1001.42 607.048 1001.42C612.211 1001.42 616.797 1002.21 620.808 1003.79C624.819 1005.33 628.211 1007.38 630.984 1009.94C633.757 1012.5 635.869 1015.31 637.32 1018.38C638.771 1021.46 639.496 1024.53 639.496 1027.6C639.496 1027.64 639.496 1027.71 639.496 1027.79C639.496 1027.88 639.496 1027.96 639.496 1028.05H625.736C625.736 1027.84 625.715 1027.6 625.672 1027.34C625.629 1027.05 625.587 1026.77 625.544 1026.51C625.203 1024 624.221 1021.76 622.6 1019.79C620.979 1017.83 618.845 1016.27 616.2 1015.12C613.555 1013.97 610.461 1013.39 606.92 1013.39C603.037 1013.39 599.453 1014.25 596.168 1015.95C592.925 1017.62 590.323 1020.16 588.36 1023.57C586.397 1026.98 585.416 1031.25 585.416 1036.37C585.416 1041.49 586.376 1045.8 588.296 1049.3C590.259 1052.75 592.861 1055.38 596.104 1057.17C599.389 1058.96 602.995 1059.86 606.92 1059.86C611.144 1059.86 614.6 1059.22 617.288 1057.94C619.976 1056.61 622.003 1054.86 623.368 1052.69C624.733 1050.47 625.523 1048.08 625.736 1045.52H639.496C639.496 1048.59 638.792 1051.71 637.384 1054.86C635.976 1057.98 633.907 1060.82 631.176 1063.38C628.445 1065.94 625.053 1067.98 621 1069.52C616.989 1071.06 612.339 1071.82 607.048 1071.82ZM654.838 1070.48V970.448H668.022V1030.42L664.63 1028.82L694.966 1002.51H712.438L679.542 1031.63L682.87 1025.42L712.438 1070.48H697.654L673.846 1032.91L676.982 1033.87L666.294 1043.34L668.022 1037.01V1070.48H654.838Z" fill="url(#paint17_linear_831_1552)"/>
<defs>
<linearGradient id="paint0_linear_831_1552" x1="399.099" y1="-99.4331" x2="399.099" y2="1035.45" gradientUnits="userSpaceOnUse">
<stop stop-color="#FEC64E"/>
<stop offset="1" stop-color="#FEAC4E"/>
</linearGradient>
<linearGradient id="paint1_linear_831_1552" x1="399.099" y1="865.418" x2="399.099" y2="929.882" gradientUnits="userSpaceOnUse">
<stop stop-color="#FEC64E"/>
<stop offset="1" stop-color="#FEAC4E"/>
</linearGradient>
<linearGradient id="paint2_linear_831_1552" x1="745.511" y1="372.371" x2="745.511" y2="473.844" gradientUnits="userSpaceOnUse">
<stop stop-color="#FEC64E"/>
<stop offset="1" stop-color="#FEAC4E"/>
</linearGradient>
<linearGradient id="paint3_linear_831_1552" x1="54.0091" y1="372.371" x2="54.0091" y2="473.844" gradientUnits="userSpaceOnUse">
<stop stop-color="#FEC64E"/>
<stop offset="1" stop-color="#FEAC4E"/>
</linearGradient>
<linearGradient id="paint4_linear_831_1552" x1="724.66" y1="254.12" x2="724.66" y2="355.609" gradientUnits="userSpaceOnUse">
<stop stop-color="#FEC64E"/>
<stop offset="1" stop-color="#FEAC4E"/>
</linearGradient>
<linearGradient id="paint5_linear_831_1552" x1="74.846" y1="490.622" x2="74.846" y2="592.135" gradientUnits="userSpaceOnUse">
<stop stop-color="#FEC64E"/>
<stop offset="1" stop-color="#FEAC4E"/>
</linearGradient>
<linearGradient id="paint6_linear_831_1552" x1="664.611" y1="150.125" x2="664.611" y2="251.615" gradientUnits="userSpaceOnUse">
<stop stop-color="#FEC64E"/>
<stop offset="1" stop-color="#FEAC4E"/>
</linearGradient>
<linearGradient id="paint7_linear_831_1552" x1="134.884" y1="594.64" x2="134.884" y2="696.099" gradientUnits="userSpaceOnUse">
<stop stop-color="#FEC64E"/>
<stop offset="1" stop-color="#FEAC4E"/>
</linearGradient>
<linearGradient id="paint8_linear_831_1552" x1="572.62" y1="72.9444" x2="572.62" y2="174.44" gradientUnits="userSpaceOnUse">
<stop stop-color="#FEC64E"/>
<stop offset="1" stop-color="#FEAC4E"/>
</linearGradient>
<linearGradient id="paint9_linear_831_1552" x1="459.798" y1="31.8619" x2="459.798" y2="133.382" gradientUnits="userSpaceOnUse">
<stop stop-color="#FEC64E"/>
<stop offset="1" stop-color="#FEAC4E"/>
</linearGradient>
<linearGradient id="paint10_linear_831_1552" x1="339.704" y1="31.8751" x2="339.704" y2="133.379" gradientUnits="userSpaceOnUse">
<stop stop-color="#FEC64E"/>
<stop offset="1" stop-color="#FEAC4E"/>
</linearGradient>
<linearGradient id="paint11_linear_831_1552" x1="226.866" y1="72.9444" x2="226.866" y2="174.44" gradientUnits="userSpaceOnUse">
<stop stop-color="#FEC64E"/>
<stop offset="1" stop-color="#FEAC4E"/>
</linearGradient>
<linearGradient id="paint12_linear_831_1552" x1="134.884" y1="150.125" x2="134.884" y2="251.615" gradientUnits="userSpaceOnUse">
<stop stop-color="#FEC64E"/>
<stop offset="1" stop-color="#FEAC4E"/>
</linearGradient>
<linearGradient id="paint13_linear_831_1552" x1="664.611" y1="594.64" x2="664.611" y2="696.099" gradientUnits="userSpaceOnUse">
<stop stop-color="#FEC64E"/>
<stop offset="1" stop-color="#FEAC4E"/>
</linearGradient>
<linearGradient id="paint14_linear_831_1552" x1="74.846" y1="254.12" x2="74.846" y2="355.609" gradientUnits="userSpaceOnUse">
<stop stop-color="#FEC64E"/>
<stop offset="1" stop-color="#FEAC4E"/>
</linearGradient>
<linearGradient id="paint15_linear_831_1552" x1="724.66" y1="490.622" x2="724.66" y2="592.135" gradientUnits="userSpaceOnUse">
<stop stop-color="#FEC64E"/>
<stop offset="1" stop-color="#FEAC4E"/>
</linearGradient>
<linearGradient id="paint16_linear_831_1552" x1="399.748" y1="188.065" x2="399.748" y2="606.565" gradientUnits="userSpaceOnUse">
<stop stop-color="#FEC64E"/>
<stop offset="1" stop-color="#FEAC4E"/>
</linearGradient>
<linearGradient id="paint17_linear_831_1552" x1="396.5" y1="923.63" x2="396.5" y2="1133.23" gradientUnits="userSpaceOnUse">
<stop stop-color="#FEC64E"/>
<stop offset="1" stop-color="#FEAC4E"/>
</linearGradient>
</defs>
</svg>
